# xmcd
#
# Track frame offsets:
#	150
#	25251
#	46684
#	78500
#	97739
#	125003
#	147465
#	169090
#	181583
#	204179
#	232051
#	253723
#	272460
#	292658
#	316220
#	333974
#
# Disc length: 4575
#
# Revision: 1
# Processed by: cddbd v1.5.1PL0 Copyright (c) Steve Scherf et al.
# Submitted via: CDex 1.50
# Normalized: r0:DSETVAR1,TDELIM( - )
#
DISCID=ce11dd10
DTITLE=Various Artist - Smooth n Jazzy
DYEAR=2002
DGENRE=Jazz
TTITLE0=Miles Davis - Time After Time (Album Version)
TTITLE1=Sarah Vaughan - Nothing Will Be As It Was
TTITLE2=Herbie Hancock - Gentle Thoughts (Album Version)
TTITLE3=Grover Washington, Jr. - Soulful Strut (Album Version)
TTITLE4=George Benson - Summertime (Album Version)
TTITLE5=Earth Wind n Fire - Reasons (Album Version)
TTITLE6=Lee Ritenour - Sweet Syncopation
TTITLE7=Ramsey Lewis - Wade In The Water (Album Version)
TTITLE8=Nnenna Freelon - Prelude To A Kiss
TTITLE9=Eric Gale - Sara Smile (Album Version)
TTITLE10=George Duke - Summer Breezin (Album Version)
TTITLE11=Stanley Clarke - Between Love n Magic (Album Version)
TTITLE12=Lonnie Liston Smith - Exotic Mysteries
TTITLE13=Astrud Gilberto n Stanley Turrentine - Vera Cruz (Instrumental)
TTITLE14=Martin Taylor - Midnight at The Oasis
TTITLE15=Bill Withers - Aint No Sunshine (Album Version)
EXTD=YEAR: 2002
EXTT0=
EXTT1=
EXTT2=
EXTT3=
EXTT4=
EXTT5=
EXTT6=
EXTT7=
EXTT8=
EXTT9=
EXTT10=
EXTT11=
EXTT12=
EXTT13=
EXTT14=
EXTT15=
PLAYORDER=
